<svg width="21" height="21" viewBox="0 0 21 21" fill="none" xmlns="http://www.w3.org/2000/svg">
<path fill-rule="evenodd" clip-rule="evenodd" d="M4.40713 13.2016C4.40713 14.4164 3.42667 15.3969 2.21182 15.3969C0.996973 15.3969 0.01651 14.4131 0.01651 13.2016C0.01651 11.99 0.996973 11.0063 2.21182 11.0063H4.40713V13.2016ZM5.50314 13.2016C5.50314 11.9867 6.4836 11.0063 7.69845 11.0063C8.9133 11.0063 9.89376 11.9867 9.89376 13.2016V18.6882C9.89376 19.903 8.9133 20.8835 7.69845 20.8835C6.4836 20.8835 5.50314 19.903 5.50314 18.6882V13.2016Z" fill="#E01E5A"/>
<path fill-rule="evenodd" clip-rule="evenodd" d="M7.69845 4.39062C6.4836 4.39062 5.50313 3.41016 5.50313 2.19531C5.50313 0.980462 6.4836 0 7.69845 0C8.91329 0 9.89376 0.980462 9.89376 2.19531V4.39062H7.69845ZM7.69845 5.50313C8.91329 5.50313 9.89376 6.4836 9.89376 7.69845C9.89376 8.91329 8.91329 9.89376 7.69845 9.89376H2.19531C0.980462 9.89376 0 8.90999 0 7.69845C0 6.4869 0.980462 5.50313 2.19531 5.50313H7.69845Z" fill="#36C5F0"/>
<path fill-rule="evenodd" clip-rule="evenodd" d="M16.4929 7.69845C16.4929 6.4836 17.4733 5.50313 18.6882 5.50313C19.903 5.50313 20.8835 6.4836 20.8835 7.69845C20.8835 8.91329 19.903 9.89376 18.6882 9.89376H16.4929V7.69845ZM15.3969 7.69845C15.3969 8.91329 14.4164 9.89376 13.2016 9.89376C11.9867 9.89376 11.0063 8.91329 11.0063 7.69845V2.19531C11.0063 0.980462 11.9867 0 13.2016 0C14.4164 0 15.3969 0.980462 15.3969 2.19531V7.69845Z" fill="#2EB67D"/>
<path fill-rule="evenodd" clip-rule="evenodd" d="M13.2016 16.4929C14.4164 16.4929 15.3969 17.4733 15.3969 18.6882C15.3969 19.903 14.4164 20.8835 13.2016 20.8835C11.9867 20.8835 11.0063 19.903 11.0063 18.6882V16.4929H13.2016ZM13.2016 15.3969C11.9867 15.3969 11.0063 14.4164 11.0063 13.2016C11.0063 11.9867 11.9867 11.0063 13.2016 11.0063H18.7047C19.9196 11.0063 20.9 11.9867 20.9 13.2016C20.9 14.4164 19.9196 15.3969 18.7047 15.3969H13.2016Z" fill="#ECB22E"/>
</svg>